<svg width="657.9px" height="122px" xmlns="http://www.w3.org/2000/svg" viewBox="-78.94687499999998 14 657.89375 122" preserveAspectRatio="xMidYMid"><defs><linearGradient id="editing-gradient-gradient" x1="0" x2="1" y1="0.5" y2="0.5" gradientUnits="objectBoundingBox"><stop offset="0" stop-color="#ff6192"></stop><stop offset="1" stop-color="#ff9100"></stop></linearGradient></defs><g><g transform="matrix(1.3,0,0,1.5,-48.3,171.7)"><path d="M -4 -43.1 L -18 -43.1 L -9.8 -85.3 L 4.2 -85.3 L -4 -43.1 Z M 51.7 -41.8 L 51.7 -41.8 L 51.7 -41.8 Q 44 -41.8 44 -47.8 L 44 -47.8 L 44 -47.8 Q 44 -50.4 45.1 -55.5 L 45.1 -55.5 L 45.1 -55.5 Q 46.2 -60.6 46.6 -62.7 L 46.6 -62.7 L 46.6 -62.7 Q 47.5 -67.3 47.5 -68.8 L 47.5 -68.8 L 47.5 -68.8 Q 47.5 -72.1 45.1 -72.1 L 45.1 -72.1 L 45.1 -72.1 Q 43.5 -72.1 41.9 -69.9 L 41.9 -69.9 L 41.9 -69.9 Q 40.4 -67.7 39.7 -63.2 L 39.7 -63.2 L 35.7 -43.1 L 23.3 -41.8 L 26.7 -59.2 L 26.7 -59.2 Q 27.3 -62.1 27.8 -65.4 L 27.8 -65.4 L 27.8 -65.4 Q 28.3 -68.6 28.3 -69.1 L 28.3 -69.1 L 28.3 -69.1 Q 28.3 -72.1 26.1 -72.1 L 26.1 -72.1 L 26.1 -72.1 Q 24.7 -72.1 23.1 -69.9 L 23.1 -69.9 L 23.1 -69.9 Q 21.5 -67.7 20.6 -63.2 L 20.6 -63.2 L 16.7 -43.1 L 4.1 -41.8 L 10.8 -75.7 L 21.2 -77 L 20.1 -70.5 L 20.1 -70.5 Q 21.8 -74 24.9 -75.5 L 24.9 -75.5 L 24.9 -75.5 Q 27.9 -77 32.7 -77 L 32.7 -77 L 32.7 -77 Q 35.5 -77 37.3 -75.7 L 37.3 -75.7 L 37.3 -75.7 Q 39.1 -74.3 39.6 -72.1 L 39.6 -72.1 L 39.6 -72.1 Q 40.7 -74.4 43.5 -75.7 L 43.5 -75.7 L 43.5 -75.7 Q 46.3 -77 49.7 -77 L 49.7 -77 L 49.7 -77 Q 53.1 -77 54.8 -76.3 L 54.8 -76.3 L 54.8 -76.3 Q 56.5 -75.5 57.6 -74.3 L 57.6 -74.3 L 57.6 -74.3 Q 59.3 -72.1 59.3 -68 L 59.3 -68 L 59.3 -68 Q 59.3 -63.9 57.6 -55.6 L 57.6 -55.6 L 57.6 -55.6 Q 56.7 -51.5 56.7 -50 L 56.7 -50 L 56.7 -50 Q 56.7 -48.5 57.5 -47.6 L 57.5 -47.6 L 57.5 -47.6 Q 58.4 -46.7 59.7 -46.5 L 59.7 -46.5 L 59.7 -46.5 Q 59 -44.4 56.8 -43.1 L 56.8 -43.1 L 56.8 -43.1 Q 54.6 -41.8 51.7 -41.8 Z M 67.4 -45 L 67.4 -45 L 67.4 -45 Q 65.9 -46.7 65.2 -49.3 L 65.2 -49.3 L 65.2 -49.3 Q 64.5 -51.9 64.5 -56.2 L 64.5 -56.2 L 64.5 -56.2 Q 64.5 -60.5 66 -64.4 L 66 -64.4 L 66 -64.4 Q 67.5 -68.3 70.2 -71.1 L 70.2 -71.1 L 70.2 -71.1 Q 75.7 -77 84.8 -77 L 84.8 -77 L 84.8 -77 Q 88 -77 90.4 -75.9 L 90.4 -75.9 L 101.3 -77 L 96.6 -52 L 96.6 -52 Q 96.4 -51.3 96.4 -49.9 L 96.4 -49.9 L 96.4 -49.9 Q 96.4 -48.5 97.3 -47.6 L 97.3 -47.6 L 97.3 -47.6 Q 98.1 -46.7 99.4 -46.5 L 99.4 -46.5 L 99.4 -46.5 Q 98.8 -44.4 96.4 -43.1 L 96.4 -43.1 L 96.4 -43.1 Q 94.1 -41.8 91.5 -41.8 L 91.5 -41.8 L 91.5 -41.8 Q 88.9 -41.8 87.1 -42.8 L 87.1 -42.8 L 87.1 -42.8 Q 85.3 -43.8 84.8 -45.5 L 84.8 -45.5 L 84.8 -45.5 Q 83.8 -43.9 81.6 -42.8 L 81.6 -42.8 L 81.6 -42.8 Q 79.4 -41.8 76.5 -41.8 L 76.5 -41.8 L 76.5 -41.8 Q 73.6 -41.8 71.3 -42.6 L 71.3 -42.6 L 71.3 -42.6 Q 68.9 -43.3 67.4 -45 Z M 80.9 -71 L 80.9 -71 L 80.9 -71 Q 80.2 -69.8 79.5 -67.9 L 79.5 -67.9 L 79.5 -67.9 Q 78.9 -65.9 77.8 -60.7 L 77.8 -60.7 L 77.8 -60.7 Q 76.8 -55.5 76.8 -51.8 L 76.8 -51.8 L 76.8 -51.8 Q 76.8 -48.1 77.3 -47 L 77.3 -47 L 77.3 -47 Q 77.9 -45.9 78.9 -45.9 L 78.9 -45.9 L 78.9 -45.9 Q 81 -45.9 82.5 -47.9 L 82.5 -47.9 L 82.5 -47.9 Q 84 -49.8 84.6 -53.3 L 84.6 -53.3 L 88 -72 L 88 -72 Q 86.6 -73.2 85 -73.2 L 85 -73.2 L 85 -73.2 Q 83.5 -73.2 82.6 -72.7 L 82.6 -72.7 L 82.6 -72.7 Q 81.6 -72.1 80.9 -71 Z M 109.1 -69.8 L 109.1 -69.8 L 109.1 -69.8 Q 111.3 -72.9 114.6 -75 L 114.6 -75 L 114.6 -75 Q 117.8 -77 121.9 -77 L 121.9 -77 L 121.9 -77 Q 125.9 -77 127.8 -75.7 L 127.8 -75.7 L 140.4 -77 L 136 -52.4 L 136 -52.4 Q 133.8 -39.9 129 -35 L 129 -35 L 129 -35 Q 124.5 -30.3 115.7 -30.3 L 115.7 -30.3 L 115.7 -30.3 Q 109 -30.3 105.1 -32.4 L 105.1 -32.4 L 105.1 -32.4 Q 101.3 -34.5 101.3 -38 L 101.3 -38 L 101.3 -38 Q 101.3 -40.7 103.3 -42.2 L 103.3 -42.2 L 103.3 -42.2 Q 105.2 -43.7 108.3 -43.7 L 108.3 -43.7 L 108.3 -43.7 Q 111 -43.7 113 -42.4 L 113 -42.4 L 113 -42.4 Q 114.3 -41.8 114.8 -40.9 L 114.8 -40.9 L 114.8 -40.9 Q 113.4 -39.6 113.4 -37.5 L 113.4 -37.5 L 113.4 -37.5 Q 113.4 -34.8 115.9 -34.8 L 115.9 -34.8 L 115.9 -34.8 Q 120.2 -34.8 122.6 -44.9 L 122.6 -44.9 L 122.6 -44.9 Q 123.4 -47.6 123.9 -50.4 L 123.9 -50.4 L 123.9 -50.4 Q 121 -46.9 114.5 -46.9 L 114.5 -46.9 L 114.5 -46.9 Q 110 -46.9 107.4 -49 L 107.4 -49 L 107.4 -49 Q 104.7 -51.2 104.7 -56.3 L 104.7 -56.3 L 104.7 -56.3 Q 104.7 -59.5 105.8 -63.1 L 105.8 -63.1 L 105.8 -63.1 Q 106.9 -66.8 109.1 -69.8 Z M 117.4 -56.1 L 117.4 -56.1 L 117.4 -56.1 Q 117.4 -51.8 119.6 -51.8 L 119.6 -51.8 L 119.6 -51.8 Q 121.2 -51.8 122.6 -53.5 L 122.6 -53.5 L 122.6 -53.5 Q 123.8 -54.8 124.2 -56.8 L 124.2 -56.8 L 127.5 -73.2 L 127.5 -73.2 Q 127.2 -73.3 126.9 -73.4 L 126.9 -73.4 L 126.9 -73.4 Q 126.2 -73.7 125.4 -73.7 L 125.4 -73.7 L 125.4 -73.7 Q 121.5 -73.7 119.2 -67.3 L 119.2 -67.3 L 119.2 -67.3 Q 117.4 -62.3 117.4 -56.1 Z M 168.8 -53.9 L 168.8 -53.9 L 168.8 -53.9 Q 170.4 -52.8 170.4 -50.4 L 170.4 -50.4 L 170.4 -50.4 Q 170.4 -48 169.2 -46.5 L 169.2 -46.5 L 169.2 -46.5 Q 168 -44.9 166 -43.9 L 166 -43.9 L 166 -43.9 Q 161.9 -41.8 157.5 -41.8 L 157.5 -41.8 L 157.5 -41.8 Q 153 -41.8 150.5 -42.8 L 150.5 -42.8 L 150.5 -42.8 Q 147.9 -43.7 146.1 -45.5 L 146.1 -45.5 L 146.1 -45.5 Q 142.7 -48.9 142.7 -55.1 L 142.7 -55.1 L 142.7 -55.1 Q 142.7 -64.8 148 -70.7 L 148 -70.7 L 148 -70.7 Q 153.6 -77 163.4 -77 L 163.4 -77 L 163.4 -77 Q 169.5 -77 172.5 -74.4 L 172.5 -74.4 L 172.5 -74.4 Q 174.7 -72.5 174.7 -69.4 L 174.7 -69.4 L 174.7 -69.4 Q 174.7 -58.1 155.3 -58.1 L 155.3 -58.1 L 155.3 -58.1 Q 155 -56.5 155 -55.1 L 155 -55.1 L 155 -55.1 Q 155 -52.1 156.3 -51 L 156.3 -51 L 156.3 -51 Q 157.7 -49.9 160.1 -49.9 L 160.1 -49.9 L 160.1 -49.9 Q 162.5 -49.9 165.1 -51 L 165.1 -51 L 165.1 -51 Q 167.7 -52.1 168.8 -53.9 Z M 155.7 -60.9 L 155.7 -60.9 L 155.7 -60.9 Q 160.3 -60.9 162.9 -63.7 L 162.9 -63.7 L 162.9 -63.7 Q 165.5 -66.4 165.5 -70.7 L 165.5 -70.7 L 165.5 -70.7 Q 165.5 -72.1 165 -72.9 L 165 -72.9 L 165 -72.9 Q 164.4 -73.7 163.4 -73.7 L 163.4 -73.7 L 163.4 -73.7 Q 162.3 -73.7 161.3 -73.3 L 161.3 -73.3 L 161.3 -73.3 Q 160.4 -72.9 159.4 -71.5 L 159.4 -71.5 L 159.4 -71.5 Q 157.1 -68.3 155.7 -60.9 Z M 196.1 -65.5 L 196.1 -65.5 L 196.1 -65.5 Q 197 -67.9 197 -70 L 197 -70 L 197 -70 Q 197 -73.7 193.9 -73.7 L 193.9 -73.7 L 193.9 -73.7 Q 192.3 -73.7 191 -72.3 L 191 -72.3 L 191 -72.3 Q 189.7 -70.9 189.7 -69.1 L 189.7 -69.1 L 189.7 -69.1 Q 189.7 -67.8 190.7 -66.8 L 190.7 -66.8 L 190.7 -66.8 Q 192.2 -65.4 195.9 -63.1 L 195.9 -63.1 L 195.9 -63.1 Q 199.7 -60.7 201.1 -58.9 L 201.1 -58.9 L 201.1 -58.9 Q 202.6 -57 202.6 -54.4 L 202.6 -54.4 L 202.6 -54.4 Q 202.6 -51.8 201.3 -49.4 L 201.3 -49.4 L 201.3 -49.4 Q 200.1 -47.1 197.8 -45.4 L 197.8 -45.4 L 197.8 -45.4 Q 193 -41.8 185.4 -41.8 L 185.4 -41.8 L 185.4 -41.8 Q 181.2 -41.8 178 -44 L 178 -44 L 178 -44 Q 174.8 -46.1 174.8 -48.6 L 174.8 -48.6 L 174.8 -48.6 Q 174.8 -51.1 176.6 -52.6 L 176.6 -52.6 L 176.6 -52.6 Q 178.5 -54 181.1 -54 L 181.1 -54 L 181.1 -54 Q 183.8 -54 185.5 -53 L 185.5 -53 L 185.5 -53 Q 184.7 -50.9 184.7 -49.5 L 184.7 -49.5 L 184.7 -49.5 Q 184.7 -45.3 188.2 -45.3 L 188.2 -45.3 L 188.2 -45.3 Q 189.8 -45.3 190.8 -46.2 L 190.8 -46.2 L 190.8 -46.2 Q 191.8 -47.2 191.8 -48.8 L 191.8 -48.8 L 191.8 -48.8 Q 191.8 -52.1 186.3 -55.6 L 186.3 -55.6 L 186.3 -55.6 Q 181.8 -58.5 180.8 -59.7 L 180.8 -59.7 L 180.8 -59.7 Q 179.1 -61.7 179.1 -64.3 L 179.1 -64.3 L 179.1 -64.3 Q 179.1 -66.8 180.3 -69.3 L 180.3 -69.3 L 180.3 -69.3 Q 181.5 -71.7 183.8 -73.4 L 183.8 -73.4 L 183.8 -73.4 Q 188.4 -77 196.6 -77 L 196.6 -77 L 196.6 -77 Q 200.7 -77 203.2 -75.3 L 203.2 -75.3 L 203.2 -75.3 Q 205.7 -73.7 205.7 -70.9 L 205.7 -70.9 L 205.7 -70.9 Q 205.7 -68 204 -66.4 L 204 -66.4 L 204 -66.4 Q 202.3 -64.8 199.2 -64.8 L 199.2 -64.8 L 199.2 -64.8 Q 197.1 -64.8 196.1 -65.5 Z M 247.1 -63.7 L 260.1 -64.8 L 260.1 -64.8 Q 255.4 -54.7 255.4 -43 L 255.4 -43 L 255.4 -43 Q 253.7 -41.8 251.2 -41.8 L 251.2 -41.8 L 251.2 -41.8 Q 248.7 -41.8 247.1 -43 L 247.1 -43 L 247.1 -43 Q 245.5 -44.2 245.1 -45.4 L 245.1 -45.4 L 245.1 -45.4 Q 243.5 -43.7 241 -42.8 L 241 -42.8 L 241 -42.8 Q 238.4 -41.8 235.6 -41.8 L 235.6 -41.8 L 235.6 -41.8 Q 232.9 -41.8 230.5 -42.7 L 230.5 -42.7 L 230.5 -42.7 Q 228.1 -43.6 226.2 -45.6 L 226.2 -45.6 L 226.2 -45.6 Q 222.1 -49.9 222.1 -58.2 L 222.1 -58.2 L 222.1 -58.2 Q 222.1 -71 229 -78.7 L 229 -78.7 L 229 -78.7 Q 236 -86.6 248.5 -86.6 L 248.5 -86.6 L 248.5 -86.6 Q 257.1 -86.6 260.2 -82.1 L 260.2 -82.1 L 260.2 -82.1 Q 261.1 -80.7 261.1 -79 L 261.1 -79 L 261.1 -79 Q 261.1 -77.3 260.4 -75.9 L 260.4 -75.9 L 260.4 -75.9 Q 259.7 -74.4 258.5 -73.3 L 258.5 -73.3 L 258.5 -73.3 Q 255.8 -70.7 252.4 -70.7 L 252.4 -70.7 L 252.4 -70.7 Q 251 -70.7 249.8 -71.2 L 249.8 -71.2 L 249.8 -71.2 Q 250 -73.1 250 -75.3 L 250 -75.3 L 250 -75.3 Q 250 -77.6 249.8 -78.6 L 249.8 -78.6 L 249.8 -78.6 Q 249.7 -79.6 249.3 -80.5 L 249.3 -80.5 L 249.3 -80.5 Q 248.5 -82.2 246.6 -82.2 L 246.6 -82.2 L 246.6 -82.2 Q 244.8 -82.2 242.8 -80.2 L 242.8 -80.2 L 242.8 -80.2 Q 240.8 -78.3 239.2 -75.1 L 239.2 -75.1 L 239.2 -75.1 Q 235.7 -67.9 235.7 -59.3 L 235.7 -59.3 L 235.7 -59.3 Q 235.7 -55.3 237.2 -52.5 L 237.2 -52.5 L 237.2 -52.5 Q 238.9 -49.4 241.8 -49.4 L 241.8 -49.4 L 241.8 -49.4 Q 242.8 -49.4 243.8 -49.9 L 243.8 -49.9 L 243.8 -49.9 Q 244.7 -50.4 245.1 -50.8 L 245.1 -50.8 L 247.1 -63.7 Z M 266 -45 L 266 -45 L 266 -45 Q 264.5 -46.7 263.8 -49.3 L 263.8 -49.3 L 263.8 -49.3 Q 263.1 -51.9 263.1 -56.2 L 263.1 -56.2 L 263.1 -56.2 Q 263.1 -60.5 264.6 -64.4 L 264.6 -64.4 L 264.6 -64.4 Q 266.1 -68.3 268.8 -71.1 L 268.8 -71.1 L 268.8 -71.1 Q 274.3 -77 283.4 -77 L 283.4 -77 L 283.4 -77 Q 286.6 -77 289 -75.9 L 289 -75.9 L 299.9 -77 L 295.2 -52 L 295.2 -52 Q 295 -51.3 295 -49.9 L 295 -49.9 L 295 -49.9 Q 295 -48.5 295.9 -47.6 L 295.9 -47.6 L 295.9 -47.6 Q 296.7 -46.7 298 -46.5 L 298 -46.5 L 298 -46.5 Q 297.4 -44.4 295 -43.1 L 295 -43.1 L 295 -43.1 Q 292.7 -41.8 290.1 -41.8 L 290.1 -41.8 L 290.1 -41.8 Q 287.4 -41.8 285.7 -42.8 L 285.7 -42.8 L 285.7 -42.8 Q 283.9 -43.8 283.4 -45.5 L 283.4 -45.5 L 283.4 -45.5 Q 282.4 -43.9 280.2 -42.8 L 280.2 -42.8 L 280.2 -42.8 Q 278 -41.8 275.1 -41.8 L 275.1 -41.8 L 275.1 -41.8 Q 272.2 -41.8 269.8 -42.6 L 269.8 -42.6 L 269.8 -42.6 Q 267.5 -43.3 266 -45 Z M 279.5 -71 L 279.5 -71 L 279.5 -71 Q 278.7 -69.8 278.1 -67.9 L 278.1 -67.9 L 278.1 -67.9 Q 277.5 -65.9 276.4 -60.7 L 276.4 -60.7 L 276.4 -60.7 Q 275.4 -55.5 275.4 -51.8 L 275.4 -51.8 L 275.4 -51.8 Q 275.4 -48.1 275.9 -47 L 275.9 -47 L 275.9 -47 Q 276.5 -45.9 277.5 -45.9 L 277.5 -45.9 L 277.5 -45.9 Q 279.6 -45.9 281.1 -47.9 L 281.1 -47.9 L 281.1 -47.9 Q 282.6 -49.8 283.2 -53.3 L 283.2 -53.3 L 286.6 -72 L 286.6 -72 Q 285.2 -73.2 283.6 -73.2 L 283.6 -73.2 L 283.6 -73.2 Q 282.1 -73.2 281.1 -72.7 L 281.1 -72.7 L 281.1 -72.7 Q 280.2 -72.1 279.5 -71 Z M 318.7 -46.6 L 318.7 -46.6 L 318.7 -46.6 Q 316.7 -41.8 310.4 -41.8 L 310.4 -41.8 L 310.4 -41.8 Q 307.2 -41.8 305.1 -44 L 305.1 -44 L 305.1 -44 Q 303.4 -45.9 303.4 -48 L 303.4 -48 L 303.4 -48 Q 303.4 -52.8 305.7 -63.3 L 305.7 -63.3 L 310.4 -87.9 L 323.4 -89.2 L 317.1 -56.8 L 317.1 -56.8 Q 316.1 -52 316.1 -50.4 L 316.1 -50.4 L 316.1 -50.4 Q 316.1 -46.7 318.7 -46.6 Z M 339.4 -46.6 L 339.4 -46.6 L 339.4 -46.6 Q 337.4 -41.8 331.1 -41.8 L 331.1 -41.8 L 331.1 -41.8 Q 327.9 -41.8 325.8 -44 L 325.8 -44 L 325.8 -44 Q 324.2 -45.9 324.2 -48 L 324.2 -48 L 324.2 -48 Q 324.2 -52.8 326.4 -63.3 L 326.4 -63.3 L 331.1 -87.9 L 344.1 -89.2 L 337.9 -56.8 L 337.9 -56.8 Q 336.8 -52 336.8 -50.4 L 336.8 -50.4 L 336.8 -50.4 Q 336.8 -46.7 339.4 -46.6 Z M 370.8 -53.9 L 370.8 -53.9 L 370.8 -53.9 Q 372.4 -52.8 372.4 -50.4 L 372.4 -50.4 L 372.4 -50.4 Q 372.4 -48 371.2 -46.5 L 371.2 -46.5 L 371.2 -46.5 Q 369.9 -44.9 368 -43.9 L 368 -43.9 L 368 -43.9 Q 363.9 -41.8 359.4 -41.8 L 359.4 -41.8 L 359.4 -41.8 Q 355 -41.8 352.4 -42.8 L 352.4 -42.8 L 352.4 -42.8 Q 349.8 -43.7 348.1 -45.5 L 348.1 -45.5 L 348.1 -45.5 Q 344.7 -48.9 344.7 -55.1 L 344.7 -55.1 L 344.7 -55.1 Q 344.7 -64.8 350 -70.7 L 350 -70.7 L 350 -70.7 Q 355.6 -77 365.4 -77 L 365.4 -77 L 365.4 -77 Q 371.5 -77 374.5 -74.4 L 374.5 -74.4 L 374.5 -74.4 Q 376.7 -72.5 376.7 -69.4 L 376.7 -69.4 L 376.7 -69.4 Q 376.7 -58.1 357.3 -58.1 L 357.3 -58.1 L 357.3 -58.1 Q 357 -56.5 357 -55.1 L 357 -55.1 L 357 -55.1 Q 357 -52.1 358.3 -51 L 358.3 -51 L 358.3 -51 Q 359.6 -49.9 362.1 -49.9 L 362.1 -49.9 L 362.1 -49.9 Q 364.5 -49.9 367.1 -51 L 367.1 -51 L 367.1 -51 Q 369.7 -52.1 370.8 -53.9 Z M 357.7 -60.9 L 357.7 -60.9 L 357.7 -60.9 Q 362.3 -60.9 364.9 -63.7 L 364.9 -63.7 L 364.9 -63.7 Q 367.5 -66.4 367.5 -70.7 L 367.5 -70.7 L 367.5 -70.7 Q 367.5 -72.1 367 -72.9 L 367 -72.9 L 367 -72.9 Q 366.4 -73.7 365.3 -73.7 L 365.3 -73.7 L 365.3 -73.7 Q 364.2 -73.7 363.3 -73.3 L 363.3 -73.3 L 363.3 -73.3 Q 362.4 -72.9 361.4 -71.5 L 361.4 -71.5 L 361.4 -71.5 Q 359.1 -68.3 357.7 -60.9 Z M 398.9 -61.1 L 398.9 -61.1 L 398.9 -61.1 Q 401.2 -65.2 401.2 -69.3 L 401.2 -69.3 L 401.2 -69.3 Q 401.2 -72.1 399.3 -72.1 L 399.3 -72.1 L 399.3 -72.1 Q 397.7 -72.1 396.1 -69.5 L 396.1 -69.5 L 396.1 -69.5 Q 394.5 -66.8 393.9 -63.4 L 393.9 -63.4 L 390.6 -43.1 L 377.4 -41.8 L 383.9 -75.7 L 394.5 -77 L 393.3 -70.5 L 393.3 -70.5 Q 396.4 -77 403.5 -77 L 403.5 -77 L 403.5 -77 Q 407.2 -77 409.2 -75.1 L 409.2 -75.1 L 409.2 -75.1 Q 411.2 -73.2 411.2 -69.2 L 411.2 -69.2 L 411.2 -69.2 Q 411.2 -65.3 408.6 -62.8 L 408.6 -62.8 L 408.6 -62.8 Q 406 -60.3 401.6 -60.3 L 401.6 -60.3 L 401.6 -60.3 Q 399.7 -60.3 398.9 -61.1 Z M 432.6 -50.3 L 432.6 -50.3 L 432.6 -50.3 Q 429.3 -46.9 423.2 -46.9 L 423.2 -46.9 L 423.2 -46.9 Q 415.6 -46.9 414 -52.4 L 414 -52.4 L 414 -52.4 Q 413.5 -54.1 413.5 -55.9 L 413.5 -55.9 L 413.5 -55.9 Q 413.5 -57.8 413.8 -59.7 L 413.8 -59.7 L 416.9 -75.7 L 429.8 -77 L 426.3 -58.4 L 426.3 -58.4 Q 426.2 -57.5 426 -56.7 L 426 -56.7 L 426 -56.7 Q 425.8 -55.8 425.8 -54.8 L 425.8 -54.8 L 425.8 -54.8 Q 425.8 -53.9 426.1 -53.3 L 426.1 -53.3 L 426.1 -53.3 Q 426.5 -52.7 426.9 -52.3 L 426.9 -52.3 L 426.9 -52.3 Q 427.7 -51.8 429 -51.8 L 429 -51.8 L 429 -51.8 Q 430.4 -51.8 431.6 -53.5 L 431.6 -53.5 L 431.6 -53.5 Q 432.8 -55.1 433.4 -58 L 433.4 -58 L 436.9 -75.7 L 449.5 -77 L 444.7 -51.9 L 444.7 -51.9 Q 442.3 -39.6 437.5 -34.7 L 437.5 -34.7 L 437.5 -34.7 Q 435 -32.2 431.7 -31.2 L 431.7 -31.2 L 431.7 -31.2 Q 428.5 -30.2 424.3 -30.2 L 424.3 -30.2 L 424.3 -30.2 Q 417.6 -30.2 413.8 -32.3 L 413.8 -32.3 L 413.8 -32.3 Q 409.9 -34.4 409.9 -38 L 409.9 -38 L 409.9 -38 Q 409.9 -40.6 411.9 -42.1 L 411.9 -42.1 L 411.9 -42.1 Q 413.9 -43.6 417 -43.6 L 417 -43.6 L 417 -43.6 Q 419.7 -43.6 421.7 -42.4 L 421.7 -42.4 L 421.7 -42.4 Q 422.9 -41.7 423.5 -40.8 L 423.5 -40.8 L 423.5 -40.8 Q 422 -39.6 422 -37.5 L 422 -37.5 L 422 -37.5 Q 422 -34.6 424.6 -34.6 L 424.6 -34.6 L 424.6 -34.6 Q 428.8 -34.6 431.3 -44.4 L 431.3 -44.4 L 431.3 -44.4 Q 432 -47.2 432.6 -50.3 Z" fill="url(#editing-gradient-gradient)"></path></g></g><style>text {
  font-size: 64px;
  font-family: Arial Black;
  dominant-baseline: central;
  text-anchor: middle;
}</style></svg>